<svg id="visual" viewBox="0 0 900 600" width="900" height="600" xmlns="http://www.w3.org/2000/svg"
     version="1.1">
    <path
        d="M0 253L82 145L164 181L245 223L327 127L409 277L491 187L573 145L655 193L736 145L818 241L900 163L900 0L818 0L736 0L655 0L573 0L491 0L409 0L327 0L245 0L164 0L82 0L0 0Z"
        fill="#8ca2c0"></path>
    <path
        d="M0 343L82 223L164 247L245 259L327 187L409 331L491 283L573 205L655 283L736 235L818 277L900 217L900 161L818 239L736 143L655 191L573 143L491 185L409 275L327 125L245 221L164 179L82 143L0 251Z"
        fill="#7b91b1"></path>
    <path
        d="M0 433L82 319L164 373L245 361L327 283L409 445L491 337L573 277L655 391L736 325L818 409L900 349L900 215L818 275L736 233L655 281L573 203L491 281L409 329L327 185L245 257L164 245L82 221L0 341Z"
        fill="#6a81a2"></path>
    <path
        d="M0 541L82 523L164 529L245 499L327 499L409 535L491 511L573 535L655 493L736 499L818 541L900 505L900 347L818 407L736 323L655 389L573 275L491 335L409 443L327 281L245 359L164 371L82 317L0 431Z"
        fill="#597193"></path>
    <path
        d="M0 601L82 601L164 601L245 601L327 601L409 601L491 601L573 601L655 601L736 601L818 601L900 601L900 503L818 539L736 497L655 491L573 533L491 509L409 533L327 497L245 497L164 527L82 521L0 539Z"
        fill="#486284"></path>
</svg>
